<svg
  xmlns="http://www.w3.org/2000/svg"
  xmlns:se="http://svg-edit.googlecode.com"
  xmlns:xlink="http://www.w3.org/1999/xlink"
  xmlns:dc="http://purl.org/dc/elements/1.1/" xmlns:cc="http://creativecommons.org/ns#"
  xmlns:rdf="http://www.w3.org/1999/02/22-rdf-syntax-ns#"
  xmlns:inkscape="http://www.inkscape.org/namespaces/inkscape"
  width="242.93404634464355" height="243.7362550701613">
  <title>my vector image</title>
  <g class="currentLayer">
    <path fill="#ffffff" 
      stroke="#009900" stroke-width="2"
      stroke-linejoin="round"
      stroke-dashoffset=""
      fill-rule="nonzero"
      marker-start=""
      marker-mid=""
      marker-end=""
      id="svg_1"
      d="M2.7177580936747177,121.64356216448175 L2.7177580936747177,121.64356216448175 C2.7177580936747177,56.09768938075587 55.853197724861104,2.9622497495773814 121.39907050860802,2.9622497495773814 L121.39907050860802,2.9622497495773814 C152.87529806709966,2.9622497495773814 183.06236779113198,15.466130496535584 205.31941507087515,37.72319370664394 C227.5764862461503,59.98026488194034 240.08038292350454,90.16731071042045 240.08038292350454,121.64356216448175 L240.08038292350454,121.64356216448175 C240.08038292350454,187.18942698301987 186.94494329231418,240.32487457939607 121.39907050860802,240.32487457939607 L121.39907050860802,240.32487457939607 C55.85320569005938,240.32487457939607 2.7177580936747177,187.18942698301987 2.7177580936747177,121.64356216448175 zM62.05841430113321,121.64356216448175 L62.05841430113321,121.64356216448175 C62.05841430113321,154.41649059115684 88.62615004712893,180.98421837194041 121.39907050860802,180.98421837194041 C154.17201486563783,180.98421837194041 180.7397267160461,154.41649059115684 180.7397267160461,121.64356216448175 C180.7397267160461,88.87063373780691 154.17199893528425,62.302905957025416 121.39907050860802,62.302905957025416 L121.39907050860802,62.302905957025416 C88.62615004712893,62.302905957025416 62.05841430113321,88.87064170300346 62.05841430113321,121.64356216448175 z"/>
  </g>
</svg>
